<svg width="108" height="21" viewBox="0 0 108 21" fill="none" xmlns="http://www.w3.org/2000/svg"
  id="logo-icon" theme="[object Object]" alt="Doodle Logo" aria-label="Doodle Logo"
  aria-hidden="true" dimension="base" data-testid="at-logo"
  class="dist__SvgDoodleLogoMonochrome-sc-ob0vd6-18 kfkjVA">
  <g clip-path="url(#doodle-logo-monochrome_svg__clip0_12424_466436)">
    <path
      d="M17.792 20.388c.283 0 .512-.23.512-.516v-4.709H5.35V5.225H.512A.514.514 0 000 5.74v14.133c0 .284.23.515.512.515h17.28z"
      fill="#000"></path>
    <path
      d="M23.141 15.163c.283 0 .512-.23.512-.515V.515A.514.514 0 0023.141 0H5.861a.514.514 0 00-.512.515v4.71h12.956v9.938h4.836z"
      fill="#000"></path>
    <path
      d="M37.896 18.673c5.424 0 8.568-3.887 8.568-8.45 0-4.563-3.168-8.45-8.568-8.45h-6.337v16.9h6.337zM35.447 5.057h2.088c3.313 0 4.92 2.486 4.92 5.166s-1.607 5.167-4.92 5.167h-2.088V5.057zM54.047 18.987c3.96 0 6.408-2.583 6.408-6.132 0-3.55-2.448-6.132-6.408-6.132-3.985 0-6.433 2.583-6.433 6.132 0 3.549 2.448 6.132 6.433 6.132zm0-3.114c-1.752 0-2.76-1.256-2.76-3.018 0-1.763 1.008-3.018 2.76-3.018 1.728 0 2.76 1.255 2.76 3.018 0 1.762-1.032 3.018-2.76 3.018zM68.11 18.987c3.96 0 6.409-2.583 6.409-6.132 0-3.55-2.449-6.132-6.409-6.132-3.984 0-6.432 2.583-6.432 6.132 0 3.549 2.448 6.132 6.432 6.132zm0-3.114c-1.752 0-2.76-1.256-2.76-3.018 0-1.763 1.008-3.018 2.76-3.018 1.728 0 2.76 1.255 2.76 3.018 0 1.762-1.032 3.018-2.76 3.018zM84.723 8.702c-.624-1.183-1.944-1.98-3.624-1.98-3.36 0-5.497 2.656-5.497 6.133 0 3.5 1.992 6.132 5.448 6.132 1.609 0 3.049-.797 3.673-1.956v1.642h3.648v-16.9h-3.648v6.93zm-2.617 7.219c-1.704 0-2.76-1.304-2.76-3.066 0-1.763 1.056-3.042 2.76-3.042 1.825 0 2.76 1.376 2.76 3.042 0 1.69-.935 3.066-2.76 3.066zM93.967 18.673v-16.9h-3.672v16.9h3.672zM108 12.251c0-3.283-2.448-5.528-6.048-5.528-3.769 0-6.24 2.317-6.24 6.132 0 3.887 2.423 6.132 6.36 6.132 3.072 0 5.4-1.521 5.76-3.815h-3.6c-.312.725-1.032 1.039-2.16 1.039-1.633 0-2.64-.821-2.713-2.342h8.545c.072-.652.096-1.014.096-1.618zm-8.64-.676c.023-1.424.984-2.366 2.567-2.366 1.561 0 2.425.821 2.449 2.366h-5.017z"
      fill="#0A0B0C"></path>
  </g>
  <defs>
    <clipPath id="doodle-logo-monochrome_svg__clip0_12424_466436">
      <path fill="#fff" d="M0 0h108v20.388H0z"></path>
    </clipPath>
  </defs>
</svg>